<?xml version="1.0" encoding="UTF-8" standalone="no"?>
<svg id="svg2" xmlns:rdf="http://www.w3.org/1999/02/22-rdf-syntax-ns#" xmlns="http://www.w3.org/2000/svg" version="1.1" xmlns:cc="http://creativecommons.org/ns#" xmlns:dc="http://purl.org/dc/elements/1.1/" viewBox="0 0 5000 5000">
 <metadata id="metadata7">
  <rdf:RDF>
   <cc:Work rdf:about="">
    <dc:format>image/svg+xml</dc:format>
    <dc:type rdf:resource="http://purl.org/dc/dcmitype/StillImage"/>
    <dc:title/>
   </cc:Work>
  </rdf:RDF>
 </metadata>
 <g id="layer1" stroke-width="0" stroke="#333" fill="#333">
  <path id="path3347" d="m660.45 129.99c-0.22231-0.0769-1.632-0.25894-3.1326-0.40447l-2.7284-0.26458v-8.0264-8.0264l7.2502-0.12657 7.2502-0.12657 1.2331-1.1824c1.491-1.4297 1.9234-3.3706 1.2535-5.6271-0.27413-0.92339-6.0526-14.957-12.841-31.186-6.7885-16.229-12.43-29.828-12.537-30.221-0.18314-0.6717 0.46755-0.70749 11.021-0.60631l11.215 0.10753 5.2076 14.147c2.8642 7.781 6.2306 16.927 7.4808 20.325 1.2503 3.3977 2.3569 6.0939 2.4592 5.9916 0.10231-0.10228 2.9753-9.2202 6.3844-20.262s6.275-20.153 6.3687-20.246c0.0936-0.0936 5.178-0.12184 11.299-0.0627l11.129 0.10755-12.288 33.751c-6.7581 18.563-13.078 35.388-14.044 37.389-4.1136 8.5205-9.011 12.781-16.292 14.174-2.6754 0.51188-14.478 0.79433-15.688 0.37545zm-286.02-0.37892c-0.0981-0.0981-3.2661-0.37321-7.0399-0.61128s-8.0893-0.54506-9.5899-0.68221l-2.7284-0.24937v-7.8298-7.8298l1.1116 0.004c0.61136 0.002 3.3852 0.27319 6.1641 0.6028 3.3918 0.40229 9.0186 0.60044 17.118 0.60279l12.066 0.004 1.3743-1.3743c1.353-1.353 1.3743-1.4289 1.3743-4.9034v-3.5291l-1.5158 0.25893c-8.9999 1.5374-10.335 1.6509-19.503 1.6582l-9.4988 0.008-2.6999-1.2791c-3.7569-1.7799-6.0984-4.0719-7.9166-7.7495l-1.5096-3.0533-0.12191-16.733c-0.0788-10.816 0.0313-17.47 0.31132-18.818 1.3192-6.3473 5.3414-10.735 11.85-12.927 2.4196-0.81496 3.4204-0.85134 27.269-0.99127l24.758-0.1455-0.008 34.284c-0.005 20.838-0.16766 35.389-0.4151 37.101-0.96952 6.7087-5.3322 11.832-11.675 13.711-1.8245 0.54052-4.4595 0.65042-15.596 0.65042-7.3701 0-13.48-0.0803-13.579-0.17842zm18.94-40.843 0.90946-0.30232v-13.918-13.918l-9.6925 0.12147-9.6925 0.12147-1.12 1.12-1.12 1.1201-0.12666 10.804c-0.0697 5.9422-0.0122 11.415 0.12761 12.162 0.13984 0.74667 0.74211 1.8097 1.3384 2.3623l1.0841 1.0047 8.6913-0.18715c4.7802-0.10293 9.1006-0.3232 9.6008-0.48947zm-265.46 19.603c-1.573-0.56153-2.7681-1.3777-4.0868-2.7912-2.8734-3.0798-3.4256-6.3156-2.0139-11.801 0.94185-3.6598 12.109-32.29 14.017-35.938 2.7527-5.2617 7.3358-9.7761 12.483-12.296 5.4275-2.657 6.0664-2.738 23.255-2.9486 21.318-0.26118 25.294 0.29518 28.449 3.981 1.6482 1.9255 2.2719 3.9264 2.2656 7.2683-0.006 3.4401-0.48726 5.0781-4.5546 15.515-1.906 4.8909-4.5661 11.755-5.9112 15.254-2.8842 7.5019-3.979 9.7648-6.3277 13.078-3.2151 4.5357-7.8159 8.0394-13.419 10.219l-2.725 1.0602-19.604 0.0958c-18.593 0.0909-19.719 0.0549-21.827-0.69777zm36.82-15.828c2.7724-0.83064 3.3663-1.8958 8.8752-15.92 2.8579-7.2751 5.3098-13.745 5.4488-14.378 0.19713-0.89755 0.0282-1.3745-0.76917-2.1719l-1.0218-1.0218-8.8098 0.009c-12.696 0.0128-12.114-0.3992-16.849 11.915-1.4533 3.7793-3.6584 9.4977-4.9003 12.707-2.487 6.4279-2.6629 7.9673-1.0055 8.8013 1.3346 0.67161 16.826 0.71904 19.032 0.0583zm47.53 16.051c-4.8197-1.2955-7.5475-4.9563-7.5475-10.129 0-3.5452 0.47979-4.9997 7.832-23.742 3.0287-7.721 5.5068-14.133 5.5068-14.248 0-0.11559-1.5461-0.21017-3.4357-0.21017-1.8897 0-3.4358-0.14007-3.4358-0.31127s1.3642-3.8509 3.0315-8.177c1.6674-4.3262 3.0315-7.9149 3.0315-7.9749s1.6825-0.11176 3.7389-0.11492l3.7389-0.006 4.0139-7.27 4.0139-7.27h9.4226 9.4226l-0.68919 1.7179c-0.37905 0.94483-1.6234 4.1734-2.7652 7.1746l-2.076 5.4568 9.2358 0.1085c5.0797 0.0597 9.2358 0.22684 9.2358 0.37148 0 0.14465-1.4097 3.8665-3.1326 8.2707l-3.1326 8.0077-9.4566 0.10912-9.4566 0.10911-3.6032 9.2967c-7.4979 19.346-7.603 19.641-7.3476 20.658 0.13636 0.54333 0.57884 1.165 0.98328 1.3814 0.40857 0.21866 4.4294 0.39354 9.0481 0.39354 6.3918 0 8.308 0.11676 8.2921 0.50526-0.0114 0.27789-1.3356 3.8703-2.9427 7.9831l-2.922 7.4778-5.6467 0.47223c-7.7599 0.64896-20.476 0.62637-22.958-0.0408zm228.3-0.13817c-4.8524-1.7015-7.9028-4.4146-10.044-8.9338l-1.2685-2.6772-0.11982-18.944c-0.0779-12.321 0.0309-19.669 0.31132-21.019 1.3191-6.3467 5.3858-10.773 11.848-12.897 2.2729-0.74681 3.8043-0.84253 16.102-1.0065 16.774-0.2237 20.763 0.11635 24.846 2.1179 5.1322 2.516 8.5868 7.3992 9.4432 13.349 0.22401 1.5562 0.41088 8.1498 0.41528 14.652l0.008 11.823h-21.019-21.019v2.8699c0 2.7248 0.0695 2.9393 1.3743 4.2442l1.3743 1.3743 12.672-0.004c8.6356-0.002 14.281-0.1944 17.724-0.60279 2.7789-0.32961 5.3749-0.60087 5.7689-0.6028 0.66411-0.003 0.70825 0.54842 0.6063 7.5751l-0.10998 7.5786-2.4252 0.27927c-7.1101 0.81875-17.283 1.2941-30.113 1.407-12.858 0.11318-14.56 0.0525-16.376-0.58419zm30.05-43.328c-0.13028-4.2254-0.1905-4.4918-1.2566-5.5578l-1.1197-1.1197-7.3686-0.10838c-5.3819-0.0792-7.641 0.0313-8.3791 0.40983-1.7381 0.89131-2.4239 2.8926-2.4246 7.0753v3.7389h10.343 10.343l-0.13682-4.4381zm123.95 43.336c-4.8591-1.7101-7.9035-4.4187-10.044-8.9364l-1.2685-2.6772-0.12037-18.335c-0.0781-11.907 0.0311-19.064 0.31136-20.412 1.3179-6.3413 5.3506-10.737 11.849-12.916 2.3958-0.80332 3.5152-0.84924 24.238-0.99437l21.726-0.15215v8.3045 8.3045l-17.372 0.11352-17.372 0.11353-1.1204 1.1206-1.1204 1.1206v13.767 13.767l1.3201 1.1796 1.32 1.1796h9.3414c7.8973 0 19.772-0.69944 23.9-1.4078l1.12-0.19218-0.10954 7.9744-0.10958 7.9744-2.4252 0.28148c-7.2247 0.83849-15.999 1.2716-28.294 1.3966-12.322 0.12531-13.953 0.066-15.769-0.57336zm-337.71-0.26835c0-0.096 6.8393-18.24 15.198-40.32 8.3592-22.08 15.558-41.103 15.997-42.273l0.79891-2.128 12.154 0.10693 12.154 0.10693 15.706 41.431c8.6386 22.787 15.817 41.843 15.952 42.347l0.24588 0.91564-11.84-0.10723-11.84-0.10722-2.6558-7.3813-2.6558-7.3813-15.136 0.10561-15.136 0.1056-2.6494 7.3757-2.6494 7.3758-11.823 0.00081c-6.5027 0.0004-11.823-0.0776-11.823-0.17357zm49.003-44.475c-2.6023-7.6616-4.8502-13.8-4.9952-13.642-0.31472 0.344-9.2457 26.589-9.2457 27.17 0 0.25578 3.4582 0.40251 9.4862 0.40251h9.4862l-4.7315-13.93zm199.58 12.515v-32.134h9.2695c8.4818 0 9.2866 0.0601 9.471 0.70736 0.11083 0.38904 0.40481 1.7339 0.65328 2.9885l0.45178 2.2812 3.8945-1.9828c7.705-3.9228 15.249-5.5462 23.412-5.0378 6.742 0.41991 10.208 1.8187 13.666 5.5153 2.2868 2.4448 3.7315 5.5651 4.2562 9.1926 0.21674 1.4984 0.39495 13.394 0.3994 26.655l0.008 23.949h-10.711-10.711v-22.474-22.474l-1.3743-1.3743-1.3743-1.3743h-4.0423c-3.7626 0-11.231 1.0291-14.733 2.03l-1.5158 0.43326v22.617 22.617h-10.509-10.509v-32.134zm-477.76 31.43c0-0.16432 0.98883-2.8472 2.1974-5.962s2.8639-7.3912 3.6785-9.5032c0.81463-2.112 3.2999-8.4782 5.5227-14.147 2.2229-5.669 6.8251-17.492 10.227-26.273 3.402-8.7814 7.3082-18.831 8.6803-22.332l2.4948-6.3662h11.482 11.482l0.19536 0.90947c0.26824 1.2488 2.0698 11.132 5.6916 31.225 1.6831 9.3372 3.168 17.337 3.2999 17.778 0.23909 0.79956 0.24062 0.79956 0.55457 0 0.17316-0.44098 3.6737-9.4417 7.779-20.002s8.4071-21.61 9.5595-24.555l2.0954-5.3557h10.928c10.244 0 10.911 0.0443 10.65 0.70736-0.15309 0.38905-1.0075 2.6172-1.8986 4.9515-0.89117 2.3343-5.7664 14.885-10.834 27.89-5.0674 13.005-11.634 29.876-14.593 37.49l-5.3797 13.844h-11.615-11.615l-0.41428-2.1221c-0.22786-1.1671-0.98454-5.3052-1.6815-9.1957-0.69698-3.8905-1.8736-10.348-2.6147-14.349-0.74112-4.0016-2.038-11.137-2.8819-15.857-0.84392-4.72-1.662-8.4488-1.8179-8.2862-0.15594 0.16254-2.2216 5.2976-4.5903 11.411-2.3687 6.1136-6.6929 17.255-9.6092 24.758l-5.3024 13.642h-10.835c-5.9594 0-10.835-0.13444-10.835-0.29875z"/>
 </g>
</svg>
